<svg width="32" height="32" viewBox="0 0 32 32" fill="none" xmlns="http://www.w3.org/2000/svg">
<path d="M7.99998 29.3334C7.26665 29.3334 6.63909 29.0725 6.11731 28.5507C5.59553 28.0289 5.3342 27.4009 5.33331 26.6667V13.3334C5.33331 12.6 5.59465 11.9725 6.11731 11.4507C6.63998 10.9289 7.26754 10.6676 7.99998 10.6667H9.33331V8.00004C9.33331 6.1556 9.98354 4.5836 11.284 3.28404C12.5844 1.98449 14.1564 1.33426 16 1.33337C17.8435 1.33249 19.416 1.98271 20.7173 3.28404C22.0186 4.58538 22.6684 6.15737 22.6666 8.00004V10.6667H24C24.7333 10.6667 25.3613 10.928 25.884 11.4507C26.4066 11.9734 26.6675 12.6009 26.6666 13.3334V26.6667C26.6666 27.4 26.4058 28.028 25.884 28.5507C25.3622 29.0734 24.7342 29.3343 24 29.3334H7.99998ZM7.99998 26.6667H24V13.3334H7.99998V26.6667ZM16 22.6667C16.7333 22.6667 17.3613 22.4058 17.884 21.884C18.4066 21.3623 18.6675 20.7343 18.6666 20C18.6658 19.2658 18.4049 18.6383 17.884 18.1174C17.3631 17.5965 16.7351 17.3352 16 17.3334C15.2649 17.3316 14.6373 17.5929 14.1173 18.1174C13.5973 18.6418 13.336 19.2694 13.3333 20C13.3306 20.7307 13.592 21.3587 14.1173 21.884C14.6426 22.4094 15.2702 22.6703 16 22.6667ZM12 10.6667H20V8.00004C20 6.88893 19.6111 5.94449 18.8333 5.16671C18.0555 4.38893 17.1111 4.00004 16 4.00004C14.8889 4.00004 13.9444 4.38893 13.1666 5.16671C12.3889 5.94449 12 6.88893 12 8.00004V10.6667Z" fill="#A6A29C"/>
</svg>
