<svg width="122" height="122" viewBox="0 0 122 122" fill="none" xmlns="http://www.w3.org/2000/svg">
<path d="M11.8611 61C11.8611 88.1399 33.8601 110.139 61 110.139C88.1399 110.139 110.139 88.1399 110.139 61H11.8611Z" fill="white"/>
<path d="M83.0278 61C83.0278 88.1382 76.25 110.139 61 110.139C88.1399 110.139 110.139 88.1382 110.139 61H83.0278Z" fill="#D0CFCE"/>
<path d="M11.8611 42.6L23.7222 54.4611M49.2117 13.2946C49.3726 15.2657 50.2248 17.1165 51.6179 18.5203C53.2062 20.1091 54.0984 22.2636 54.0984 24.5101C54.0984 26.7567 53.2062 28.9112 51.6179 30.5C50.0296 32.0888 49.1373 34.2433 49.1373 36.4899C49.1373 38.7364 50.0296 40.891 51.6179 42.4797C53.2062 44.0685 54.0984 46.2231 54.0984 48.4696C54.0984 50.7161 53.2062 52.8707 51.6179 54.4595M58.5769 11.9221C58.4075 14.291 59.1903 16.7106 61 18.5203C62.5883 20.1091 63.4806 22.2636 63.4806 24.5101C63.4806 26.7567 62.5883 28.9112 61 30.5C59.4117 32.0888 58.5194 34.2433 58.5194 36.4899C58.5194 38.7364 59.4117 40.891 61 42.4797C62.5883 44.0685 63.4806 46.2231 63.4806 48.4696C63.4806 50.7161 62.5883 52.8707 61 54.4595M67.7947 12.3406C67.7642 13.484 67.9669 14.6216 68.3905 15.6841C68.8141 16.7465 69.4497 17.7115 70.2584 18.5203C71.8467 20.1091 72.739 22.2636 72.739 24.5101C72.739 26.7567 71.8467 28.9112 70.2584 30.5C68.6701 32.0888 67.7779 34.2433 67.7779 36.4899C67.7779 38.7364 68.6701 40.891 70.2584 42.4797C71.8467 44.0685 72.739 46.2231 72.739 48.4696C72.739 50.7161 71.8467 52.8707 70.2584 54.4595M11.8611 61C11.8611 88.1399 33.8601 110.139 61 110.139C88.1399 110.139 110.139 88.1399 110.139 61H11.8611Z" stroke="black" stroke-width="0.5" stroke-miterlimit="10" stroke-linecap="round" stroke-linejoin="round"/>
</svg>
